<svg id="svg" version="1.1" xmlns="http://www.w3.org/2000/svg" xmlns:xlink="http://www.w3.org/1999/xlink" width="400" height="440.3669724770642" viewBox="0, 0, 400,440.3669724770642"><g id="svgg"><path id="path0" d="M196.239 45.340 C 150.524 46.950,111.795 81.514,104.973 126.789 C 96.287 184.436,139.884 236.358,197.982 237.558 C 264.584 238.933,312.369 174.079,291.291 110.917 C 278.764 73.381,243.337 46.557,204.771 45.406 C 203.005 45.353,201.188 45.288,200.734 45.260 C 200.280 45.233,198.257 45.268,196.239 45.340 M141.651 273.555 C 91.057 294.126,54.516 339.682,46.336 392.385 C 46.179 393.394,46.009 394.406,45.958 394.633 L 45.865 395.046 199.350 395.046 L 352.835 395.046 352.749 394.541 C 352.702 394.264,352.410 392.550,352.102 390.734 C 343.178 338.238,306.695 293.382,256.649 273.376 C 253.395 272.076,254.081 272.081,250.848 273.329 C 218.249 285.909,181.294 285.859,148.978 273.190 C 147.205 272.495,145.719 271.932,145.675 271.939 C 145.632 271.945,143.821 272.673,141.651 273.555 " stroke="none" fill="#0484fc" fill-rule="evenodd"></path><path id="path1" d="M199.774 0.104 C 199.738 0.140,198.267 0.180,196.506 0.193 C 193.238 0.216,188.017 0.524,185.688 0.831 C 185.335 0.877,184.592 0.961,184.037 1.018 C 183.482 1.074,182.821 1.150,182.569 1.188 C 182.317 1.225,181.656 1.308,181.101 1.373 C 180.546 1.438,179.183 1.643,178.073 1.828 C 176.963 2.013,175.436 2.262,174.679 2.382 C 172.572 2.716,169.200 3.448,166.055 4.254 C 164.491 4.655,163.087 5.009,162.935 5.041 C 162.121 5.212,160.710 5.627,158.073 6.470 C 156.459 6.987,155.055 7.426,154.954 7.445 C 154.224 7.588,146.331 10.570,145.553 10.997 C 145.375 11.095,144.899 11.310,144.495 11.474 C 141.797 12.575,140.666 13.105,136.055 15.432 C 133.734 16.604,130.885 18.120,129.725 18.802 C 128.564 19.484,127.326 20.207,126.972 20.410 C 125.799 21.081,120.170 24.746,120.000 24.949 C 119.950 25.009,119.448 25.360,118.885 25.729 C 118.322 26.098,117.755 26.528,117.624 26.686 C 117.493 26.844,117.314 26.972,117.225 26.972 C 117.084 26.972,113.815 29.371,113.035 30.046 C 112.880 30.181,112.257 30.677,111.651 31.150 C 111.046 31.622,110.461 32.093,110.351 32.197 C 110.242 32.300,109.790 32.674,109.347 33.028 C 108.606 33.618,107.483 34.593,106.495 35.505 C 106.276 35.706,105.408 36.491,104.567 37.248 C 101.773 39.763,96.210 45.421,94.128 47.865 C 93.674 48.398,93.135 49.014,92.930 49.234 C 92.725 49.453,91.916 50.417,91.131 51.376 C 90.347 52.335,89.532 53.326,89.320 53.578 C 89.108 53.830,88.597 54.491,88.183 55.046 C 87.770 55.601,87.245 56.261,87.018 56.512 C 86.791 56.763,86.606 57.037,86.606 57.121 C 86.606 57.205,86.281 57.660,85.885 58.132 C 85.488 58.604,84.207 60.436,83.037 62.202 C 81.867 63.968,80.808 65.555,80.684 65.729 C 80.560 65.903,80.211 66.465,79.908 66.978 C 79.606 67.490,79.061 68.380,78.698 68.955 C 78.087 69.922,77.635 70.712,76.315 73.119 C 75.629 74.370,71.543 82.517,71.155 83.410 C 70.982 83.805,70.662 84.541,70.443 85.046 C 70.223 85.550,69.892 86.294,69.707 86.697 C 69.522 87.101,69.151 88.009,68.883 88.716 C 68.077 90.840,67.775 91.624,67.537 92.202 C 67.298 92.786,64.934 99.780,64.872 100.092 C 64.851 100.193,64.657 100.855,64.440 101.565 C 64.223 102.274,63.875 103.512,63.667 104.317 C 63.459 105.121,63.251 105.904,63.206 106.055 C 62.671 107.822,61.296 114.309,60.737 117.706 C 60.521 119.018,60.310 120.298,60.267 120.550 C 60.006 122.103,59.488 126.731,59.166 130.389 C 58.419 138.894,58.743 151.683,59.909 159.656 C 60.051 160.627,60.217 161.824,60.279 162.316 C 60.540 164.406,61.545 169.931,62.010 171.835 C 62.109 172.239,62.529 173.965,62.943 175.672 C 63.891 179.574,64.726 182.478,65.876 185.872 C 67.136 189.587,67.327 190.133,67.513 190.550 C 67.603 190.752,67.760 191.165,67.861 191.468 C 67.963 191.771,68.210 192.431,68.410 192.936 C 68.610 193.440,69.028 194.498,69.340 195.286 C 69.652 196.074,70.107 197.148,70.351 197.672 C 70.594 198.195,71.106 199.326,71.488 200.183 C 72.341 202.099,76.094 209.529,76.399 209.908 C 76.521 210.060,76.740 210.431,76.886 210.734 C 77.232 211.452,78.794 214.153,79.540 215.321 C 79.863 215.826,80.465 216.775,80.879 217.431 C 81.293 218.087,81.719 218.724,81.825 218.845 C 81.931 218.967,82.018 219.153,82.018 219.258 C 82.018 219.363,82.101 219.450,82.202 219.450 C 82.303 219.450,82.385 219.558,82.385 219.690 C 82.385 219.823,82.530 220.095,82.706 220.297 C 82.883 220.498,83.110 220.790,83.211 220.946 C 83.729 221.746,84.467 222.838,84.608 223.013 C 84.696 223.122,85.202 223.815,85.732 224.554 C 86.636 225.811,89.570 229.646,90.373 230.620 C 90.572 230.861,91.060 231.439,91.458 231.905 C 92.339 232.937,92.653 233.307,93.086 233.823 C 94.671 235.714,98.197 239.502,100.337 241.616 C 100.981 242.252,101.479 242.792,101.442 242.815 C 100.517 243.405,99.385 244.037,99.254 244.037 C 99.160 244.037,99.083 244.119,99.083 244.220 C 99.083 244.321,98.989 244.404,98.875 244.404 C 98.628 244.404,93.761 247.323,93.108 247.863 C 93.000 247.951,92.711 248.127,92.466 248.253 C 91.983 248.501,85.656 252.665,85.505 252.834 C 85.454 252.891,85.041 253.179,84.587 253.475 C 83.692 254.059,81.679 255.516,79.358 257.261 C 78.550 257.868,77.436 258.704,76.881 259.120 C 76.326 259.535,75.724 260.027,75.543 260.213 C 75.363 260.398,75.156 260.552,75.085 260.555 C 75.013 260.557,74.657 260.825,74.294 261.151 C 73.931 261.477,73.359 261.950,73.024 262.202 C 72.688 262.454,72.241 262.826,72.031 263.028 C 71.821 263.229,71.360 263.616,71.008 263.886 C 70.655 264.156,70.119 264.595,69.817 264.861 C 69.341 265.279,68.271 266.211,66.911 267.392 C 62.209 271.476,54.994 278.609,51.101 283.021 C 50.495 283.707,49.826 284.444,49.613 284.657 C 49.259 285.013,47.780 286.716,45.688 289.174 C 45.234 289.708,44.744 290.313,44.598 290.520 C 44.453 290.726,44.205 291.028,44.048 291.191 C 43.890 291.353,43.555 291.762,43.303 292.098 C 43.050 292.434,42.688 292.884,42.498 293.098 C 42.308 293.311,41.692 294.106,41.130 294.862 C 40.567 295.619,39.918 296.444,39.686 296.695 C 39.455 296.947,39.266 297.204,39.266 297.267 C 39.266 297.330,39.020 297.661,38.719 298.003 C 38.417 298.344,38.170 298.687,38.168 298.764 C 38.166 298.841,37.814 299.347,37.385 299.888 C 36.956 300.429,36.317 301.298,35.963 301.819 C 35.610 302.340,35.135 303.002,34.908 303.290 C 34.681 303.579,34.495 303.906,34.495 304.017 C 34.495 304.129,34.413 304.220,34.312 304.220 C 34.211 304.220,34.128 304.297,34.128 304.392 C 34.128 304.486,33.550 305.400,32.844 306.422 C 32.138 307.444,31.560 308.320,31.560 308.368 C 31.560 308.416,31.415 308.613,31.239 308.805 C 30.739 309.349,25.561 317.933,24.707 319.633 C 24.529 319.986,24.188 320.606,23.948 321.009 C 22.453 323.524,17.451 333.566,16.499 335.963 C 16.319 336.417,15.959 337.222,15.700 337.751 C 15.441 338.281,15.229 338.764,15.229 338.825 C 15.229 338.886,15.113 339.196,14.970 339.514 C 14.828 339.832,14.406 340.835,14.034 341.743 C 13.661 342.651,13.200 343.745,13.009 344.172 C 12.817 344.600,12.661 345.006,12.661 345.075 C 12.661 345.144,12.441 345.744,12.174 346.408 C 11.178 348.875,9.408 354.035,8.172 358.073 C 6.446 363.713,6.684 362.856,5.085 369.174 C 4.309 372.238,3.752 374.602,3.572 375.596 C 3.467 376.177,3.366 376.666,3.230 377.248 C 3.171 377.500,3.086 377.913,3.040 378.165 C 2.994 378.417,2.825 379.284,2.664 380.092 C 2.504 380.899,2.297 382.055,2.204 382.661 C 2.112 383.266,1.949 384.257,1.842 384.862 C 1.734 385.468,1.482 387.119,1.281 388.532 C 1.080 389.945,0.875 391.370,0.825 391.698 C 0.034 396.961,0.000 398.112,0.000 419.533 L 0.000 440.183 199.792 440.183 L 399.584 440.183 399.534 425.459 C 399.506 417.360,399.431 409.784,399.367 408.624 C 399.178 405.232,398.889 400.886,398.800 400.092 C 398.755 399.688,398.634 398.487,398.531 397.422 C 398.202 394.022,398.146 393.546,397.688 390.275 C 397.065 385.834,396.922 384.896,396.612 383.211 C 395.997 379.866,395.013 374.875,394.749 373.761 C 394.594 373.106,394.432 372.393,394.390 372.178 C 394.215 371.290,392.614 364.950,392.265 363.761 C 390.881 359.052,390.180 356.786,389.255 354.037 C 387.996 350.290,386.417 345.926,385.605 343.945 C 384.184 340.476,383.766 339.473,383.366 338.573 C 383.129 338.040,382.936 337.567,382.936 337.521 C 382.936 337.476,382.600 336.714,382.190 335.829 C 379.113 329.188,375.463 322.009,373.364 318.469 C 372.775 317.476,372.294 316.588,372.294 316.497 C 372.294 316.405,372.211 316.330,372.110 316.330 C 372.009 316.330,371.927 316.225,371.927 316.097 C 371.927 315.968,371.638 315.424,371.284 314.888 C 370.931 314.352,370.642 313.872,370.642 313.822 C 370.642 313.773,370.341 313.264,369.972 312.692 C 369.604 312.119,369.122 311.362,368.902 311.009 C 368.102 309.728,364.150 303.759,364.041 303.670 C 363.980 303.619,363.549 303.000,363.083 302.294 C 362.618 301.587,362.104 300.844,361.942 300.642 C 361.779 300.440,361.144 299.582,360.530 298.735 C 359.337 297.088,359.360 297.118,358.579 296.147 C 358.295 295.794,357.616 294.906,357.069 294.174 C 356.522 293.443,356.014 292.844,355.940 292.844 C 355.865 292.844,355.756 292.700,355.697 292.523 C 355.638 292.346,355.323 291.903,354.997 291.538 C 354.671 291.173,354.156 290.555,353.853 290.166 C 353.345 289.512,352.149 288.104,351.920 287.890 C 351.866 287.839,351.642 287.564,351.422 287.277 C 350.783 286.445,348.090 283.454,345.046 280.197 C 343.196 278.217,338.766 273.787,336.593 271.743 C 333.988 269.293,330.444 266.105,329.604 265.456 C 329.317 265.235,328.990 264.969,328.877 264.866 C 328.763 264.763,328.322 264.390,327.895 264.037 C 327.469 263.683,326.983 263.271,326.816 263.119 C 326.649 262.968,326.017 262.449,325.412 261.965 C 324.807 261.482,323.994 260.823,323.606 260.502 C 323.218 260.181,322.610 259.721,322.255 259.480 C 321.900 259.239,321.469 258.900,321.296 258.727 C 321.123 258.555,320.410 258.008,319.711 257.513 C 319.012 257.017,318.235 256.425,317.984 256.196 C 317.732 255.967,317.458 255.780,317.374 255.780 C 317.290 255.780,316.830 255.450,316.351 255.046 C 315.873 254.642,315.429 254.312,315.365 254.312 C 315.301 254.312,314.717 253.920,314.068 253.440 C 311.689 251.685,304.220 246.789,303.921 246.789 C 303.865 246.789,303.559 246.603,303.242 246.376 C 302.925 246.149,302.458 245.849,302.204 245.709 C 300.019 244.504,298.305 243.396,298.340 243.211 C 298.360 243.110,299.587 241.789,301.069 240.275 C 302.550 238.761,304.298 236.915,304.954 236.174 C 305.610 235.433,306.362 234.590,306.625 234.302 C 306.888 234.014,307.425 233.391,307.818 232.917 C 308.211 232.443,308.615 231.965,308.716 231.854 C 308.817 231.742,309.132 231.340,309.416 230.960 C 309.700 230.579,310.113 230.070,310.333 229.828 C 310.953 229.146,311.238 228.792,312.118 227.610 C 312.567 227.007,312.980 226.472,313.036 226.422 C 313.092 226.372,313.423 225.917,313.771 225.413 C 314.119 224.908,314.456 224.454,314.520 224.404 C 314.583 224.353,315.004 223.775,315.454 223.119 C 315.904 222.463,316.656 221.378,317.127 220.708 C 317.597 220.038,317.982 219.405,317.982 219.302 C 317.982 219.198,318.058 219.086,318.150 219.052 C 318.329 218.987,319.542 217.111,320.206 215.872 C 320.423 215.468,320.655 215.096,320.722 215.046 C 320.879 214.928,322.018 213.056,322.018 212.915 C 322.018 212.857,322.171 212.590,322.357 212.322 C 322.543 212.054,323.012 211.257,323.399 210.550 C 323.786 209.844,324.465 208.606,324.908 207.798 C 325.634 206.475,327.772 202.148,328.624 200.275 C 329.385 198.605,329.883 197.467,330.270 196.514 C 330.496 195.959,330.752 195.339,330.839 195.138 C 330.926 194.936,331.157 194.358,331.353 193.853 C 331.548 193.349,332.039 192.087,332.444 191.049 C 332.849 190.012,333.190 189.125,333.201 189.079 C 333.212 189.033,333.258 188.891,333.304 188.763 C 333.665 187.757,335.509 181.972,335.688 181.284 C 335.701 181.234,335.841 180.780,335.998 180.275 C 336.316 179.254,337.755 173.474,338.329 170.917 C 339.225 166.921,340.533 158.179,340.826 154.220 C 340.893 153.312,340.979 152.374,341.016 152.135 C 341.780 147.269,341.234 129.292,340.104 122.110 C 339.925 120.970,339.595 118.784,339.508 118.165 C 339.459 117.812,339.173 116.284,338.872 114.771 C 338.571 113.257,338.286 111.812,338.237 111.560 C 338.078 110.726,337.219 107.080,336.963 106.147 C 336.824 105.642,336.537 104.610,336.326 103.853 C 336.114 103.096,335.919 102.394,335.892 102.294 C 335.739 101.717,335.289 100.243,334.800 98.716 C 334.493 97.757,334.221 96.853,334.196 96.708 C 334.134 96.345,333.048 93.378,332.834 92.984 C 332.739 92.809,332.661 92.575,332.661 92.465 C 332.661 92.219,330.520 86.806,329.726 85.043 C 329.408 84.338,328.927 83.268,328.657 82.666 C 327.586 80.279,324.101 73.490,323.144 71.927 C 322.928 71.573,322.625 71.037,322.471 70.734 C 321.928 69.667,320.100 66.661,319.680 66.147 C 319.598 66.046,319.206 65.406,318.810 64.725 C 318.413 64.044,318.023 63.486,317.944 63.486 C 317.864 63.486,317.798 63.397,317.798 63.289 C 317.798 63.116,315.192 59.261,314.672 58.664 C 314.564 58.541,314.171 58.017,313.798 57.499 C 312.725 56.010,310.543 53.176,309.971 52.530 C 309.684 52.206,309.243 51.675,308.991 51.351 C 308.739 51.026,308.449 50.672,308.347 50.564 C 308.246 50.456,307.926 50.078,307.636 49.725 C 304.558 45.970,298.005 39.291,293.953 35.780 C 293.313 35.225,292.386 34.405,291.893 33.958 C 291.401 33.511,290.815 33.025,290.591 32.876 C 290.367 32.728,290.101 32.513,290.000 32.399 C 289.831 32.207,288.191 30.880,287.197 30.131 C 286.968 29.958,286.679 29.734,286.555 29.633 C 285.562 28.822,283.797 27.513,282.569 26.675 C 282.014 26.297,281.518 25.935,281.468 25.872 C 281.417 25.808,280.881 25.434,280.275 25.040 C 279.670 24.647,279.133 24.275,279.083 24.213 C 278.902 23.994,273.475 20.544,272.110 19.780 C 271.102 19.216,270.132 18.663,269.220 18.131 C 265.753 16.111,256.584 11.650,254.587 11.012 C 254.183 10.883,253.759 10.704,253.645 10.613 C 253.530 10.522,252.745 10.201,251.901 9.898 C 251.058 9.596,250.202 9.276,250.000 9.188 C 248.919 8.718,247.488 8.208,244.679 7.291 C 241.240 6.170,238.169 5.235,237.308 5.050 C 237.124 5.010,235.817 4.679,234.404 4.315 C 229.354 3.015,221.100 1.501,216.422 1.019 C 215.917 0.967,215.092 0.882,214.587 0.830 C 210.989 0.459,209.123 0.344,205.413 0.264 C 203.092 0.213,200.888 0.142,200.516 0.105 C 200.144 0.068,199.810 0.068,199.774 0.104 M206.982 45.326 C 264.458 49.723,305.058 102.160,294.847 158.807 C 287.710 198.396,256.108 229.661,216.422 236.396 C 153.032 247.152,97.209 194.443,104.324 130.550 C 110.017 79.428,155.810 41.412,206.982 45.326 M148.807 272.976 C 181.828 285.670,218.591 285.773,250.547 273.264 C 251.962 272.710,253.285 272.218,253.487 272.171 C 254.483 271.937,267.264 277.654,273.812 281.262 C 316.677 304.881,345.294 345.896,352.912 394.633 L 352.977 395.046 199.424 395.046 L 45.872 395.046 45.872 394.598 C 45.872 393.996,46.673 389.352,47.362 385.963 C 57.636 335.416,94.007 292.106,142.018 273.248 C 146.178 271.614,145.657 271.736,146.697 272.151 C 147.202 272.353,148.151 272.724,148.807 272.976 " stroke="none" fill="#f4f4f4" fill-rule="evenodd"></path><path id="path2" d="M198.753 237.751 C 199.430 237.786,200.586 237.786,201.322 237.751 C 202.058 237.716,201.505 237.687,200.092 237.687 C 198.679 237.687,198.077 237.715,198.753 237.751 M198.678 282.705 C 199.516 282.740,200.837 282.739,201.614 282.705 C 202.392 282.671,201.706 282.643,200.092 282.643 C 198.477 282.643,197.841 282.671,198.678 282.705 " stroke="none" fill="#94c5f7" fill-rule="evenodd"></path><path id="path3" d="M197.483 45.273 C 197.965 45.311,198.708 45.310,199.134 45.272 C 199.560 45.233,199.165 45.202,198.257 45.203 C 197.349 45.203,197.000 45.235,197.483 45.273 M201.152 45.273 C 201.635 45.311,202.378 45.310,202.804 45.272 C 203.230 45.233,202.835 45.202,201.927 45.203 C 201.018 45.203,200.670 45.235,201.152 45.273 M266.055 71.468 C 266.397 71.821,266.719 72.110,266.769 72.110 C 266.820 72.110,266.581 71.821,266.239 71.468 C 265.896 71.115,265.575 70.826,265.524 70.826 C 265.474 70.826,265.713 71.115,266.055 71.468 M103.899 136.789 C 103.902 137.193,103.939 137.336,103.983 137.108 C 104.027 136.880,104.025 136.549,103.979 136.374 C 103.933 136.199,103.897 136.385,103.899 136.789 M296.193 138.073 C 296.195 138.477,296.233 138.621,296.277 138.392 C 296.320 138.164,296.319 137.834,296.273 137.658 C 296.227 137.483,296.191 137.670,296.193 138.073 M296.197 144.771 C 296.197 145.225,296.233 145.411,296.276 145.183 C 296.320 144.956,296.320 144.585,296.276 144.358 C 296.233 144.131,296.197 144.317,296.197 144.771 M103.899 145.963 C 103.902 146.367,103.939 146.511,103.983 146.282 C 104.027 146.054,104.025 145.724,103.979 145.548 C 103.933 145.373,103.897 145.560,103.899 145.963 M130.826 208.349 C 131.374 208.904,131.864 209.358,131.914 209.358 C 131.965 209.358,131.557 208.904,131.009 208.349 C 130.461 207.794,129.971 207.339,129.921 207.339 C 129.870 207.339,130.278 207.794,130.826 208.349 M267.977 209.587 L 266.697 210.917 268.028 209.638 C 269.263 208.450,269.442 208.257,269.307 208.257 C 269.279 208.257,268.680 208.856,267.977 209.587 M133.119 210.642 C 133.616 211.147,134.064 211.560,134.115 211.560 C 134.165 211.560,133.800 211.147,133.303 210.642 C 132.806 210.138,132.358 209.725,132.307 209.725 C 132.257 209.725,132.622 210.138,133.119 210.642 M195.737 282.702 C 196.067 282.743,196.562 282.742,196.838 282.700 C 197.114 282.658,196.844 282.625,196.239 282.626 C 195.633 282.627,195.407 282.661,195.737 282.702 M203.444 282.702 C 203.773 282.743,204.269 282.742,204.545 282.700 C 204.820 282.658,204.550 282.625,203.945 282.626 C 203.339 282.627,203.114 282.661,203.444 282.702 M306.055 305.046 C 306.397 305.399,306.719 305.688,306.769 305.688 C 306.820 305.688,306.581 305.399,306.239 305.046 C 305.896 304.693,305.575 304.404,305.524 304.404 C 305.474 304.404,305.713 304.693,306.055 305.046 M92.110 305.413 C 91.664 305.867,91.341 306.239,91.391 306.239 C 91.442 306.239,91.848 305.867,92.294 305.413 C 92.739 304.959,93.063 304.587,93.012 304.587 C 92.962 304.587,92.556 304.959,92.110 305.413 M87.056 310.505 L 86.330 311.284 87.110 310.559 C 87.835 309.885,87.974 309.725,87.835 309.725 C 87.805 309.725,87.455 310.076,87.056 310.505 " stroke="none" fill="#59a9fc" fill-rule="evenodd"></path><path id="path4" d="M131.828 73.440 L 130.917 74.404 131.881 73.493 C 132.776 72.647,132.928 72.477,132.791 72.477 C 132.762 72.477,132.329 72.911,131.828 73.440 M103.716 141.376 C 103.718 141.780,103.756 141.923,103.799 141.695 C 103.843 141.467,103.842 141.137,103.796 140.961 C 103.750 140.786,103.714 140.972,103.716 141.376 " stroke="none" fill="#b4d4f4" fill-rule="evenodd"></path><path id="path5" d="M103.712 140.183 C 103.712 140.537,103.750 140.681,103.796 140.505 C 103.842 140.328,103.842 140.039,103.796 139.862 C 103.750 139.686,103.712 139.830,103.712 140.183 M103.712 142.569 C 103.712 142.922,103.750 143.067,103.796 142.890 C 103.842 142.713,103.842 142.424,103.796 142.248 C 103.750 142.071,103.712 142.216,103.712 142.569 M309.083 307.890 C 309.580 308.394,310.027 308.807,310.078 308.807 C 310.128 308.807,309.763 308.394,309.266 307.890 C 308.769 307.385,308.321 306.972,308.271 306.972 C 308.220 306.972,308.586 307.385,309.083 307.890 " stroke="none" fill="#c5ddf4" fill-rule="evenodd"></path><path id="path6" d="M130.642 208.314 C 130.642 208.346,130.911 208.614,131.239 208.911 L 131.835 209.450 131.296 208.853 C 130.794 208.297,130.642 208.173,130.642 208.314 M132.110 209.782 C 132.110 209.814,132.378 210.082,132.706 210.379 L 133.303 210.917 132.764 210.321 C 132.261 209.765,132.110 209.640,132.110 209.782 M57.695 276.009 L 57.156 276.606 57.752 276.067 C 58.308 275.564,58.433 275.413,58.291 275.413 C 58.260 275.413,57.991 275.681,57.695 276.009 M91.640 305.734 L 91.101 306.330 91.697 305.791 C 92.253 305.289,92.378 305.138,92.236 305.138 C 92.205 305.138,91.936 305.406,91.640 305.734 M87.420 309.954 L 86.881 310.550 87.477 310.012 C 88.033 309.509,88.158 309.358,88.016 309.358 C 87.984 309.358,87.716 309.626,87.420 309.954 M399.525 431.743 C 399.525 433.509,399.553 434.232,399.586 433.349 C 399.620 432.466,399.620 431.021,399.586 430.138 C 399.553 429.255,399.525 429.977,399.525 431.743 " stroke="none" fill="#e8ecf4" fill-rule="evenodd"></path><path id="path7" d="M268.073 73.303 C 268.724 73.959,269.297 74.495,269.347 74.495 C 269.398 74.495,268.907 73.959,268.257 73.303 C 267.607 72.647,267.034 72.110,266.983 72.110 C 266.933 72.110,267.423 72.647,268.073 73.303 M307.523 306.330 C 307.865 306.683,308.187 306.972,308.237 306.972 C 308.288 306.972,308.049 306.683,307.706 306.330 C 307.364 305.977,307.043 305.688,306.992 305.688 C 306.942 305.688,307.181 305.977,307.523 306.330 M90.539 306.835 L 90.000 307.431 90.596 306.892 C 91.152 306.390,91.277 306.239,91.135 306.239 C 91.104 306.239,90.835 306.507,90.539 306.835 M88.614 308.761 L 87.982 309.450 88.670 308.817 C 89.310 308.229,89.442 308.073,89.302 308.073 C 89.271 308.073,88.962 308.383,88.614 308.761 M310.092 308.865 C 310.092 308.896,310.360 309.165,310.688 309.461 L 311.284 310.000 310.745 309.404 C 310.243 308.848,310.092 308.723,310.092 308.865 " stroke="none" fill="#d8e6f4" fill-rule="evenodd"></path><path id="path8" d="M399.492 435.413 C 399.492 435.766,399.530 435.911,399.576 435.734 C 399.622 435.557,399.622 435.268,399.576 435.092 C 399.530 434.915,399.492 435.060,399.492 435.413 " stroke="none" fill="#ecf4f4" fill-rule="evenodd"></path></g></svg>